<svg width="150" height="29" viewBox="0 0 150 29" fill="none" xmlns="http://www.w3.org/2000/svg">
<path d="M147.265 29C147.558 28.9664 147.846 28.8889 148.121 28.7696C148.523 28.5915 148.872 28.2885 149.129 27.8955C149.385 27.5025 149.539 27.0353 149.572 26.5477C149.572 23.9308 149.572 20.1124 149.572 15.2078C149.572 12.7555 149.572 10.007 149.572 6.9786C149.572 6.23797 149.572 5.46442 149.572 4.69088C149.667 3.94027 149.523 3.176 149.166 2.53483C148.966 2.2274 148.706 1.97672 148.406 1.80251C148.107 1.62831 147.775 1.53532 147.439 1.53086H145.174H124.202L2.80743 1.02065C2.49671 1.01466 2.18932 1.09382 1.91136 1.25142C1.63341 1.40902 1.39312 1.6404 1.21091 1.92587C0.860423 2.56965 0.726425 3.33516 0.833537 4.08192C0.833537 5.72777 0.833537 7.37361 0.833537 9.01946C0.833537 12.3111 0.833537 15.6028 0.833537 18.8945C0.833537 20.5404 0.833537 22.1862 0.833537 23.8321C0.773327 24.5986 0.773327 25.3697 0.833537 26.1362C0.909784 26.4649 1.0515 26.7693 1.24776 27.0261C1.44403 27.2829 1.6896 27.4852 1.96562 27.6175C2.2516 27.7466 2.55781 27.8082 2.8655 27.7985H10.2531L42.4885 27.996L97.0608 28.3746L133.854 28.7037L143.854 28.8354H146.452C147.047 28.8354 147.337 28.8354 147.337 28.8354H146.452H143.854H133.854H97.0608L42.4885 28.6379L10.2531 28.4898H2.8655C2.45893 28.5084 2.05343 28.4299 1.67535 28.2594C1.29318 28.0744 0.95331 27.7929 0.681656 27.4364C0.410002 27.0799 0.213736 26.6577 0.107841 26.2021C0.0238231 25.7701 -0.00549572 25.3267 0.0207607 24.8854V23.6675C0.0207607 22.0216 0.0207607 20.3758 0.0207607 18.7299C0.0207607 15.4382 0.0207607 12.1465 0.0207607 8.85486C0.0207607 7.20902 0.0207607 5.56317 0.0207607 3.91733C-0.00692023 3.479 -0.00692023 3.03898 0.0207607 2.60065C0.0751467 2.11651 0.240268 1.65692 0.499723 1.26752C0.750101 0.870238 1.08148 0.547506 1.46562 0.326839C1.84976 0.106172 2.27526 -0.00586727 2.70585 0.000236689L124.1 0.757311L145.073 0.921905H147.337C147.736 0.922255 148.129 1.03163 148.483 1.24077C148.836 1.44992 149.14 1.75267 149.369 2.12336C149.778 2.83892 149.943 3.69908 149.833 4.54276C149.833 5.3163 149.833 6.08985 149.833 6.83048C149.833 9.82592 149.833 12.5745 149.833 15.0597C149.833 19.9972 149.732 23.7827 149.703 26.416C149.667 26.9223 149.505 27.4066 149.235 27.8119C148.965 28.2172 148.599 28.5266 148.179 28.7037C147.904 28.8968 147.588 28.9993 147.265 29Z" fill="#E0E0E0"/>
</svg>
