<svg width="121" height="164" viewBox="0 0 121 164" fill="none" xmlns="http://www.w3.org/2000/svg">
<path d="M85.0889 34.5026L77.6132 37.5314L74.4052 26.4533C68.5117 6.02551 49.728 -4.82213 32.4686 2.07492C15.2091 8.97198 6.02046 31.3751 11.9139 51.8029L15.122 62.881L7.61723 65.9262C4.75553 67.1849 2.43164 69.6457 1.12859 72.7971C-0.174452 75.9486 -0.356421 79.5482 0.620524 82.8479L21.4219 154.929C21.8537 156.563 22.5706 158.081 23.5301 159.394C24.4896 160.707 25.672 161.788 27.0071 162.573C28.3423 163.358 29.8028 163.83 31.3021 163.962C32.8014 164.094 34.3088 163.883 35.7346 163.341L113.206 131.917C116.106 130.661 118.463 128.178 119.781 124.992C121.1 121.805 121.277 118.163 120.276 114.831L99.4597 42.7495C99.0167 41.1206 98.2889 39.6096 97.3197 38.3067C96.3505 37.0038 95.1597 35.9356 93.8185 35.1659C92.4773 34.3962 91.0131 33.9408 89.5132 33.8269C88.0134 33.7129 86.5087 33.9427 85.0889 34.5026ZM26.0379 46.0251C24.4489 40.7136 24.7341 34.9108 26.834 29.8325C28.9338 24.7541 32.6852 20.7943 37.3024 18.7826C39.5822 17.898 41.9959 17.5433 44.3993 17.7396C46.8027 17.9359 49.1466 18.6792 51.2912 19.9251C53.4358 21.171 55.3371 22.894 56.8816 24.9913C58.4262 27.0886 59.5824 29.5172 60.2812 32.1323L63.4746 43.2104L29.2315 57.1032L26.0379 46.0251ZM69.5858 109.992L74.8987 128.395C74.9963 128.764 74.9648 129.161 74.8107 129.505C74.6566 129.848 74.3918 130.111 74.0713 130.238L66.6246 133.251C66.3283 133.344 66.0116 133.303 65.741 133.138C65.4704 132.972 65.2669 132.694 65.173 132.362L59.8166 114.041C56.8631 113.859 54.0292 112.657 51.6944 110.598C49.3596 108.539 47.6353 105.72 46.7523 102.518C45.4898 98.2863 45.72 93.6644 47.3949 89.6204C49.0698 85.5764 52.0593 82.424 55.7376 80.8232C57.5538 80.1195 59.4763 79.8377 61.3905 79.9945C63.3047 80.1513 65.1715 80.7435 66.8797 81.7358C68.5878 82.728 70.1022 84.1001 71.3328 85.7703C72.5634 87.4404 73.4848 89.3743 74.0423 91.4568C74.9762 94.7087 75.0535 98.1989 74.2645 101.5C73.4755 104.801 71.8546 107.769 69.6004 110.041L69.5858 109.992Z" fill="#9FCCC0"/>
<path d="M77.2794 37.3339C77.2794 37.5643 63.4167 43.4737 46.1717 50.5025C28.9267 57.5312 14.8607 63.1772 14.7881 63.0126C14.7156 62.848 28.6509 56.8892 45.9104 49.844C63.1699 42.7988 77.2068 37.1199 77.2794 37.3339Z" fill="#263238"/>
<path d="M93.7407 40.3626C93.8048 40.5055 93.8581 40.6541 93.9004 40.8071C94.0165 41.1363 94.1472 41.5643 94.3213 42.091C94.6988 43.2926 95.2213 44.9552 95.8746 47.0292L101.449 65.4324C103.771 73.2348 106.544 82.4857 109.621 92.7572C111.073 97.9094 112.786 103.276 114.382 108.922C115.237 111.831 115.606 114.896 115.471 117.959C115.348 119.552 114.948 121.101 114.295 122.518C113.598 123.931 112.666 125.177 111.552 126.189C109.309 128.045 106.82 129.485 104.178 130.452L96.702 133.498L82.5489 139.242L58.583 148.921L42.3978 155.374L38.043 157.02L36.8817 157.448C36.7575 157.511 36.6251 157.55 36.4897 157.563C36.4897 157.563 36.6059 157.563 36.8526 157.366L37.9849 156.855L42.3397 154.995L58.4379 148.279L82.3602 138.403L96.4843 132.609L103.96 129.547C106.527 128.619 108.944 127.223 111.116 125.415C112.153 124.476 113.021 123.319 113.671 122.008C114.286 120.697 114.656 119.257 114.76 117.778C114.893 114.826 114.539 111.873 113.715 109.07C112.147 103.473 110.492 98.0576 108.997 92.9054C105.978 82.6174 103.191 73.3335 100.984 65.5311C98.7777 57.7287 96.9197 51.4572 95.6423 47.0457C95.0326 44.8893 94.5681 43.2103 94.1907 41.9922L93.8423 40.6754C93.7985 40.5756 93.7644 40.4708 93.7407 40.3626Z" fill="#263238"/>
<path d="M52.8639 17.6633C52.8639 17.6633 52.0946 17.2353 50.672 16.5769C48.6443 15.6934 46.4998 15.2037 44.3285 15.1283C41.1103 15.0032 37.9076 15.6891 34.9512 17.1365C31.3562 18.9389 28.2822 21.8543 26.082 25.548C23.8671 29.2311 22.6786 33.5837 22.6707 38.0417C22.701 41.6955 23.1897 45.3259 24.1223 48.8235C24.8772 51.8193 25.661 54.2062 26.1836 55.8687C26.4918 56.7131 26.7442 57.5825 26.9384 58.4695C26.5261 57.6799 26.1809 56.8477 25.9078 55.9839C25.3126 54.3378 24.4562 52.0004 23.6143 48.9881C22.5808 45.4538 22.0182 41.7643 21.9449 38.0417C21.9062 33.4153 23.1224 28.8871 25.4288 25.0706C27.7057 21.242 30.9053 18.2365 34.6464 16.4123C37.695 14.9568 40.9975 14.3148 44.2995 14.5357C46.5178 14.6639 48.697 15.2496 50.7301 16.2641C51.2737 16.5485 51.7977 16.8786 52.2978 17.2518C52.5043 17.3546 52.6953 17.4935 52.8639 17.6633Z" fill="#263238"/>
<path d="M53.5312 82.0742C53.7629 81.915 54.0056 81.7774 54.257 81.6627C54.9836 81.2909 55.7362 80.988 56.507 80.7573C57.7304 80.3478 58.9925 80.1047 60.2666 80.033C61.9996 79.9274 63.7334 80.2243 65.3617 80.9055C69.0778 82.3869 72.489 86.6832 74.1729 92.428C74.9804 95.5109 74.9804 98.7935 74.1729 101.876C73.2775 105.223 71.6726 108.269 69.4987 110.749L69.5858 110.304C71.5164 116.313 73.6213 122.831 75.7987 129.629L75.9293 130.041L75.5664 130.189L72.2423 131.44L64.9843 134.189L64.6214 134.321L64.5052 133.909C62.5165 127.094 60.3392 120.74 58.6989 114.502L59.0182 114.782C56.1804 114.514 53.4746 113.307 51.2377 111.308C49.2138 109.541 47.5542 107.294 46.3748 104.724C45.3106 102.445 44.7808 99.8947 44.8361 97.3168C44.9033 94.6822 45.4834 92.097 46.5349 89.7464C47.5864 87.3958 49.0833 85.338 50.9183 83.7203C51.6737 83.0249 52.5212 82.4694 53.4296 82.0742C52.6096 82.6259 51.815 83.2247 51.049 83.8684C49.0332 85.8023 47.4888 88.2904 46.5635 91.0947C45.7694 93.2093 45.3979 95.4971 45.4757 97.7938C45.5535 100.09 46.0786 102.339 47.0135 104.379C48.1732 106.851 49.7928 109.007 51.7602 110.699C53.8942 112.599 56.474 113.744 59.1779 113.992H59.4246L59.4973 114.239C61.094 120.362 63.2859 126.765 65.3036 133.613L64.8246 133.349L72.0826 130.6L75.3922 129.333L75.16 129.893C72.9971 123.094 70.9068 116.559 68.9907 110.551V110.304L69.1649 110.107C71.2752 107.73 72.8487 104.81 73.7519 101.597C74.5219 98.6476 74.5219 95.5087 73.7519 92.5597C72.1697 87.0289 68.9036 82.8314 65.3617 81.3499C63.7939 80.6644 62.1201 80.3452 60.4408 80.4116C59.1869 80.4442 57.9403 80.6375 56.7247 80.9878C54.5618 81.5968 53.5457 82.1565 53.5312 82.0742Z" fill="#263238"/>
</svg>
