<svg width="150" height="29" viewBox="0 0 150 29" fill="none" xmlns="http://www.w3.org/2000/svg">
<path d="M146.772 28.8414C147.066 28.8005 147.357 28.74 147.644 28.6602C148.05 28.5138 148.423 28.2704 148.739 27.9465C149.054 27.6226 149.305 27.2256 149.474 26.7825C149.703 26.1175 149.792 25.4014 149.736 24.6906C149.736 23.9 149.736 23.0434 149.736 22.0881C149.736 20.1774 149.736 18.0032 149.736 15.4996V5.04024C149.805 4.28299 149.657 3.52056 149.314 2.866C148.956 2.19471 148.393 1.69638 147.731 1.46595C147.008 1.31955 146.271 1.27529 145.538 1.33418H124.636L3.56711 0.823569C2.91589 0.825312 2.2874 1.09514 1.79847 1.58292C1.30954 2.0707 0.993447 2.74324 0.908967 3.47546C0.908967 5.04024 0.908967 6.76974 0.908967 8.41688C0.908967 11.7112 0.908967 15.0054 0.908967 18.2997C0.908967 19.9468 0.908967 21.594 0.908967 23.2411C0.854858 24.0109 0.884123 24.7854 0.996116 25.5471C1.17747 26.215 1.55075 26.7948 2.05646 27.1942C2.59302 27.5804 3.22329 27.7648 3.85761 27.7213H5.87663H10.0745L42.219 27.9025L96.6455 28.2814L133.336 28.6108L143.315 28.7426H133.336H96.6455L42.19 28.6767L10.0454 28.5449H3.72689C2.94123 28.5977 2.16161 28.3608 1.50451 27.8696C0.84357 27.3504 0.361203 26.5881 0.139126 25.7118C0.00893782 24.8749 -0.0300914 24.023 0.0229208 23.1752C0.0229208 21.5281 0.0229208 19.8809 0.0229208 18.2338C0.0229208 14.9395 0.0229208 11.6453 0.0229208 8.35098C0.0229208 6.70384 0.0229208 5.0567 0.0229208 3.40956C0.128909 2.46772 0.533969 1.60197 1.16228 0.974369C1.79059 0.346773 2.59908 0.000374988 3.43638 0L124.505 0.75767L145.407 0.938856C146.185 0.884711 146.967 0.945618 147.731 1.12004C148.486 1.39966 149.122 1.98649 149.518 2.76718C149.893 3.49267 150.056 4.3348 149.983 5.17201C149.983 5.94617 149.983 6.70385 149.983 7.46153C149.983 10.4429 149.983 13.1771 149.983 15.6972C149.983 18.2173 149.983 20.3422 149.983 22.2858C149.983 23.2246 149.983 24.0976 149.983 24.9047C150.035 25.6413 149.931 26.3815 149.677 27.0625C149.489 27.517 149.216 27.92 148.878 28.244C148.539 28.5681 148.143 28.8056 147.717 28.9402C147.399 28.9699 147.08 28.9365 146.772 28.8414Z" fill="#E0E0E0"/>
</svg>
