<svg width="150" height="30" viewBox="0 0 150 30" fill="none" xmlns="http://www.w3.org/2000/svg">
<path d="M146.656 29.0583C146.95 29.019 147.241 28.9585 147.528 28.8772C147.932 28.7316 148.304 28.4903 148.619 28.1694C148.935 27.8485 149.187 27.4553 149.358 27.0157C149.586 26.3504 149.675 25.6345 149.619 24.9237C149.619 24.1165 149.619 23.2764 149.619 22.3045C149.619 20.4101 149.619 18.2191 149.619 15.7153V5.25489C149.689 4.49757 149.541 3.73506 149.198 3.08044C148.831 2.42133 148.27 1.93105 147.615 1.69672C146.892 1.54446 146.155 1.49466 145.421 1.54847H124.517L3.43672 1.03781C2.78544 1.03955 2.15687 1.30943 1.66789 1.79726C1.17891 2.28509 0.862809 2.95764 0.778321 3.68994C0.778321 5.33723 0.778321 6.98453 0.778321 8.63183C0.778321 11.9264 0.778321 15.221 0.778321 18.5156C0.778321 20.1629 0.778321 21.8102 0.778321 23.4575C0.724224 24.2219 0.753495 24.991 0.865478 25.7473C1.03945 26.4194 1.4144 27.0019 1.92592 27.3946C2.45919 27.7894 3.09209 27.9746 3.72725 27.9217H10.0464L42.1941 28.1194L96.6259 28.4983L133.32 28.8277L143.3 28.9595H133.32H96.6259L42.1941 28.7783L10.0464 28.6301H3.72725C2.94088 28.6902 2.15914 28.4527 1.50466 27.9547C0.843653 27.4354 0.361238 26.6731 0.13914 25.7967C0.0089387 24.9597 -0.0300943 24.1077 0.022923 23.2599C0.022923 21.6126 0.022923 19.9653 0.022923 18.318C0.022923 15.0234 0.022923 11.7288 0.022923 8.43417C0.022923 6.78687 0.022923 5.13959 0.022923 3.40992C0.125622 2.46937 0.527767 1.60376 1.15375 0.975822C1.77973 0.34788 2.58642 0.000849161 3.42218 0L124.503 0.757744L145.407 0.938973C146.185 0.884823 146.966 0.945711 147.731 1.12015C148.486 1.3998 149.122 1.98668 149.518 2.76745C149.894 3.49301 150.056 4.3352 149.983 5.17249C149.983 5.94673 149.983 6.72098 149.983 7.46227C149.983 10.4439 149.983 13.1784 149.983 15.6988C149.983 18.2191 149.983 20.3441 149.983 22.288C149.983 23.2269 149.983 24.1 149.983 24.9072C150.038 25.644 149.934 26.385 149.678 27.0651C149.489 27.5197 149.216 27.9227 148.878 28.2468C148.539 28.5709 148.143 28.8084 147.716 28.9431C147.376 29.0753 147.013 29.1147 146.656 29.0583Z" fill="#E0E0E0"/>
</svg>
