<svg width="6" height="8" viewBox="0 0 6 8" fill="none" xmlns="http://www.w3.org/2000/svg">
<path d="M5.99261 3.63877C6.02126 4.10434 5.96512 4.57156 5.8277 5.01147C5.69029 5.45138 5.47452 5.85454 5.19382 6.19584C4.91312 6.53714 4.5735 6.8093 4.19607 6.99538C3.81865 7.18146 3.41149 7.2775 2.99993 7.2775C2.58838 7.2775 2.18122 7.18146 1.80379 6.99538C1.42637 6.8093 1.08674 6.53714 0.806042 6.19584C0.525343 5.85454 0.30958 5.45138 0.172163 5.01147C0.0347458 4.57156 -0.0213751 4.10434 0.00728201 3.63877C-0.0213751 3.17321 0.0347458 2.70594 0.172163 2.26603C0.30958 1.82611 0.525343 1.42296 0.806042 1.08166C1.08674 0.740359 1.42637 0.4682 1.80379 0.282119C2.18122 0.0960385 2.58838 0 2.99993 0C3.41149 0 3.81865 0.0960385 4.19607 0.282119C4.5735 0.4682 4.91312 0.740359 5.19382 1.08166C5.47452 1.42296 5.69029 1.82611 5.8277 2.26603C5.96512 2.70594 6.02126 3.17321 5.99261 3.63877Z" fill="#9FCCC0"/>
</svg>
