<svg width="16" height="16" viewBox="0 0 16 16" fill="none" xmlns="http://www.w3.org/2000/svg">
<path d="M15.3985 8C15.3985 12.4193 11.9511 16 7.69925 16C3.44737 16 0 12.4193 0 8C0 3.58332 3.44737 0 7.69925 0C11.9511 0 15.3985 3.58332 15.3985 8ZM7.90585 2.64516C6.21398 2.64516 5.1349 3.38571 4.28755 4.70187C4.17777 4.87239 4.2145 5.10236 4.37184 5.22632L5.44908 6.07503C5.61067 6.20235 5.8409 6.17206 5.96645 6.00658C6.52105 5.27568 6.90132 4.85184 7.74544 4.85184C8.37967 4.85184 9.16415 5.27597 9.16415 5.915C9.16415 6.3981 8.78034 6.64619 8.15412 7.011C7.42381 7.43639 6.45743 7.96584 6.45743 9.29032V9.41935C6.45743 9.63313 6.62424 9.80645 6.82998 9.80645H8.56852C8.77425 9.80645 8.94106 9.63313 8.94106 9.41935V9.37635C8.94106 8.45823 11.5236 8.42 11.5236 5.93548C11.5236 4.06445 9.65576 2.64516 7.90585 2.64516ZM7.69925 10.6452C6.91178 10.6452 6.27116 11.3108 6.27116 12.129C6.27116 12.9472 6.91178 13.6129 7.69925 13.6129C8.48671 13.6129 9.12733 12.9472 9.12733 12.129C9.12733 11.3108 8.48671 10.6452 7.69925 10.6452Z" fill="white"/>
</svg>
