<svg width="121" height="235" viewBox="0 0 121 235" fill="none" xmlns="http://www.w3.org/2000/svg">
<path d="M26.6751 175.094C4.28278 157.36 -0.789895 124.441 0.0942016 94.841C0.239135 89.9105 -0.239128 84.6841 1.83343 80.3617C3.90598 76.0392 8.74676 73.0645 12.6455 75.1353C15.8775 76.861 17.2834 81.1341 19.095 84.6677C21.5124 89.3741 25.0548 93.2088 29.3129 95.7286C32.0811 97.3721 35.5161 98.3582 38.2553 96.6489C42.0236 94.2987 42.4583 88.4313 42.4294 83.5008C42.4294 74.33 42.3811 65.1701 42.2845 56.0212C42.024 51.1085 42.4645 46.1803 43.5889 41.4268C44.9367 36.7592 47.9369 32.4368 52.0385 31.122C56.1401 29.8071 61.2563 32.5189 62.1838 37.318C62.3435 39.3506 62.3871 41.3929 62.3143 43.4319C62.4302 45.4863 63.2709 47.7379 64.9666 48.3624C66.6623 48.987 68.4305 47.5571 69.7349 46.1108C74.1989 41.1803 77.2425 34.7541 80.0687 28.4102C82.8949 22.0662 85.6631 15.5414 89.7213 10.1343C93.7794 4.7271 99.3884 0.437534 105.664 0.0266554C111.94 -0.384223 118.476 3.98753 120.041 10.8903C121.607 17.7931 118.056 24.8437 114.244 30.4481C108.492 38.7671 101.712 46.1015 94.1128 52.2247C92.6294 53.1431 91.4456 54.5778 90.7358 56.317C89.7938 59.6041 92.533 62.8911 95.3882 63.9265C98.6202 65.1427 102.128 64.7647 105.534 65.2249C108.94 65.685 112.563 67.3614 113.853 70.9772C115.621 76.0063 111.911 81.2656 108.273 84.717C100.968 91.6197 92.6737 97.0508 83.75 100.774C80.5615 102.089 77.2135 103.256 74.6337 105.787C72.0538 108.318 70.5176 112.739 72.0683 116.207C73.6191 119.675 77.6048 120.776 80.9528 120.069C84.3008 119.362 87.2719 117.324 90.4604 115.96C96.4172 113.413 104.099 113.873 107.853 119.707C109.015 121.717 109.752 124.005 110.003 126.392C110.255 128.779 110.014 131.2 109.302 133.464C107.851 137.969 105.619 142.099 102.736 145.609C93.2438 158.47 80.91 168.242 66.9957 173.927C53.1835 179.351 40.3858 180.83 26.6606 175.127" fill="#9FCCC0"/>
<path d="M113.664 4.08619C113.664 4.08619 113.534 4.25054 113.244 4.54638L111.954 5.84474C110.824 6.9952 109.157 8.6716 107.055 10.8903C101.097 17.1639 95.5642 23.9379 90.504 31.1549C87.272 35.7074 83.924 40.868 80.3586 46.4724C76.7932 52.0768 73.112 58.125 69.4596 64.5511C65.5657 71.3276 61.9999 78.3393 58.778 85.5552C57.0967 89.3189 55.6184 93.2469 54.0966 97.257L49.6037 109.501C43.6813 124.924 38.5233 140.71 34.1537 156.785C30.634 169.938 28.2079 183.435 26.907 197.101C26.0641 206.323 25.9283 215.611 26.5012 224.859C26.7331 228.147 26.9505 230.661 27.1534 232.37C27.2404 233.192 27.2983 233.85 27.3563 234.326V235C27.2939 234.786 27.2503 234.566 27.2259 234.343C27.1534 233.866 27.0664 233.225 26.9505 232.403C26.6896 230.76 26.4143 228.163 26.1534 224.876C25.4541 215.61 25.5026 206.291 26.2983 197.035C27.5184 183.311 29.8916 169.751 33.3856 156.539C37.7185 140.418 42.8624 124.593 48.792 109.14L53.4009 96.9448C54.9227 92.951 56.4155 88.9901 58.1113 85.2101C61.3556 77.9724 64.9506 70.9438 68.8798 64.1566C72.5902 57.5826 76.3295 51.6331 79.8513 46.078C83.3732 40.5229 86.7792 35.3294 89.9967 30.7933C95.1084 23.5954 100.716 16.8688 106.766 10.6767C108.911 8.4908 110.621 6.84729 111.78 5.74613L113.128 4.5135C113.293 4.35036 113.473 4.20717 113.664 4.08619Z" fill="#263238"/>
<path d="M58.2994 85.1772C58.0949 84.5001 57.954 83.8005 57.879 83.0899C57.6471 81.7258 57.3863 79.8029 57.0819 77.3047C56.4587 72.3742 55.821 65.6193 55.1398 58.1413C54.4586 50.6633 53.6905 43.8921 53.0528 39.0108C52.7194 36.5784 52.4295 34.6227 52.2266 33.2585C52.0683 32.5603 51.9856 31.8429 51.9803 31.122C52.2298 31.7804 52.4098 32.47 52.5165 33.1764C52.8354 34.524 53.1977 36.4634 53.6035 38.9122C54.4296 43.8428 55.2412 50.5483 55.9224 58.0427C56.6036 65.5371 57.1834 72.1112 57.6327 77.2226C57.8501 79.5235 58.0385 81.4793 58.1834 83.0406C58.296 83.7452 58.3349 84.4623 58.2994 85.1772Z" fill="#263238"/>
<path d="M114.07 73.3768C113.364 73.5509 112.646 73.6499 111.925 73.6726C110.475 73.8205 108.417 74.0178 105.866 74.3465C100.765 74.971 93.75 76.1214 86.054 77.765C78.358 79.4085 71.4447 81.2656 66.4735 82.6955C63.9951 83.4186 61.995 84.0761 60.6761 84.5198C59.9719 84.8036 59.2432 85.0019 58.5021 85.1115C59.1719 84.7295 59.8703 84.4161 60.5891 84.1747C61.9515 83.6323 63.9226 82.8763 66.3865 82.071C71.3287 80.4274 78.2421 78.4717 85.967 76.7953C92.5108 75.3764 99.1137 74.3342 105.75 73.6726C108.316 73.4261 110.388 73.3275 111.838 73.2946C112.582 73.2372 113.33 73.2647 114.07 73.3768Z" fill="#263238"/>
<path d="M34.0952 155.388C33.9406 155.15 33.814 154.891 33.7184 154.616L32.7618 152.331C31.9357 150.343 30.8197 147.401 29.4863 143.801C26.7905 136.57 23.3556 126.446 19.7033 115.204C16.0509 103.963 12.6884 93.8385 10.1376 86.5249C8.89118 82.9749 7.86218 80.0659 7.09403 77.8965L6.28236 75.5462C6.16987 75.2752 6.09183 74.9874 6.05051 74.6916C6.20503 74.9295 6.33167 75.1892 6.42731 75.464L7.38388 77.7485C8.19551 79.7372 9.326 82.6791 10.6594 86.2784C13.3552 93.5099 16.7901 103.634 20.4424 114.876C24.0948 126.117 27.4572 136.241 30.0081 143.555C31.2545 147.105 32.2835 150.014 33.0372 152.183C33.3705 153.12 33.6459 153.827 33.8633 154.534C33.9758 154.805 34.0538 155.092 34.0952 155.388Z" fill="#263238"/>
<path d="M108.127 128.319C107.895 128.471 107.647 128.587 107.388 128.665L105.243 129.486L97.3154 132.395C90.6195 134.861 81.3727 138.378 71.2273 142.256C61.0819 146.135 51.7916 149.587 45.0522 151.887C41.6898 153.054 38.9505 153.942 37.0519 154.534L34.8634 155.174C34.6089 155.266 34.3466 155.327 34.0808 155.355C34.3128 155.204 34.5613 155.088 34.8199 155.01L36.9649 154.188L44.8928 151.279C51.5888 148.814 60.8355 145.297 70.9809 141.418C81.1263 137.54 90.402 134.088 97.1414 131.787C100.518 130.62 103.243 129.733 105.156 129.141L107.345 128.5C107.599 128.409 107.862 128.348 108.127 128.319Z" fill="#263238"/>
</svg>
