<svg width="191" height="453" viewBox="0 0 191 453" fill="none" xmlns="http://www.w3.org/2000/svg">
<path d="M168.342 0.559962H140.247C139.33 0.579231 138.425 0.803114 137.585 1.21882C136.745 1.63452 135.985 2.2339 135.349 2.98272C134.713 3.73154 134.213 4.61513 133.878 5.58302C133.543 6.55091 133.38 7.58413 133.397 8.62367V14.3999C133.414 15.4387 133.251 16.4711 132.915 17.438C132.58 18.405 132.08 19.2875 131.444 20.035C130.808 20.7825 130.048 21.3803 129.207 21.7942C128.367 22.2082 127.463 22.43 126.547 22.4472L71.7778 22.1674C69.925 22.1114 68.1676 21.2238 66.8914 19.6995C65.6153 18.1753 64.9248 16.139 64.9716 14.0379V8.26163C65.0184 6.16328 64.3299 4.12943 63.0569 2.60564C61.7839 1.08186 60.0301 0.192383 58.1798 0.132088H48.297L23.6987 0.000445122C17.848 -0.0390567 12.2218 2.55202 8.05208 7.20634C3.88238 11.8607 1.50894 18.1989 1.45146 24.8334L0.000234549 427.064C-0.0131366 430.356 0.545312 433.618 1.64371 436.664C2.74211 439.711 4.35897 442.482 6.40191 444.82C8.44486 447.159 10.8739 449.017 13.5504 450.291C16.2268 451.564 19.0983 452.228 22.0008 452.243L166.659 453C169.563 453.015 172.442 452.381 175.13 451.135C177.819 449.888 180.264 448.054 182.328 445.736C184.391 443.417 186.031 440.661 187.155 437.624C188.279 434.587 188.864 431.329 188.877 428.035L190.328 25.8043C190.363 19.1512 188.067 12.7546 183.944 8.02086C179.821 3.28708 174.209 0.603473 168.342 0.559962Z" fill="white"/>
</svg>
