<svg width="619" height="606" viewBox="0 0 619 606" fill="none" xmlns="http://www.w3.org/2000/svg">
<path d="M619 463.589H381.534V307.761H619V463.589ZM382.983 461.945H617.551V309.404H382.983V461.945Z" fill="#E0E0E0"/>
<path d="M570.011 390.85H413.338V396.059H570.011V390.85Z" fill="#F0F0F0"/>
<path d="M580.805 410.271H413.338V415.956H580.805V410.271Z" fill="#F0F0F0"/>
<path d="M580.805 429.922H413.338V435.607H580.805V429.922Z" fill="#F0F0F0"/>
<path d="M468.093 362.639H413.338V376.161H468.093V362.639Z" fill="#F0F0F0"/>
<path d="M618.275 308.582H382.301V333.393H618.275V308.582Z" fill="#E0E0E0"/>
<path d="M600.12 329.679C599.815 329.351 602.858 325.194 606.901 320.396C610.943 315.598 614.493 311.967 614.783 312.279C615.073 312.592 612.044 316.765 608.002 321.579C603.959 326.393 600.409 330.008 600.12 329.679Z" fill="white"/>
<path d="M614.812 329.679C614.522 330.008 610.987 326.393 606.93 321.579C602.873 316.765 599.844 312.608 600.149 312.279C600.453 311.951 603.974 315.566 608.031 320.396C612.088 325.227 615.087 329.351 614.812 329.679Z" fill="white"/>
<path d="M326.793 0H90.8193V154.201H326.793V0Z" fill="#E6E6E6"/>
<path d="M278.543 82.2843H121.87V87.4928H278.543V82.2843Z" fill="#F0F0F0"/>
<path d="M289.338 101.705H121.87V107.39H289.338V101.705Z" fill="#F0F0F0"/>
<path d="M289.338 121.356H121.87V127.041H289.338V121.356Z" fill="#F0F0F0"/>
<path d="M176.625 54.073H121.87V67.5954H176.625V54.073Z" fill="#F0F0F0"/>
<path d="M326.793 0H90.8193V24.8102H326.793V0Z" fill="#E0E0E0"/>
<path d="M307.841 20.9818C307.536 20.6696 310.579 16.4963 314.622 11.6985C318.664 6.9008 322.214 3.26965 322.504 3.59826C322.794 3.92687 319.765 8.0838 315.723 12.8815C311.68 17.6793 308.13 21.2776 307.841 20.9818Z" fill="white"/>
<path d="M322.504 20.9819C322.214 21.3105 318.679 17.6957 314.622 12.8816C310.565 8.06742 307.536 3.92693 307.841 3.59831C308.145 3.2697 311.666 6.88442 315.723 11.6986C319.78 16.5127 322.808 20.6697 322.504 20.9819Z" fill="white"/>
<path d="M237.422 286.451H0V130.607H237.422V286.451ZM1.44893 284.807H235.973V132.25H1.44893V284.807Z" fill="#E0E0E0"/>
<path d="M188.448 213.712H31.7749V218.921H188.448V213.712Z" fill="#F0F0F0"/>
<path d="M199.243 233.133H31.7749V238.818H199.243V233.133Z" fill="#F0F0F0"/>
<path d="M199.243 252.784H31.7749V258.469H199.243V252.784Z" fill="#F0F0F0"/>
<path d="M86.5301 185.501H31.7749V199.023H86.5301V185.501Z" fill="#F0F0F0"/>
<path d="M236.698 131.428H0.724609V156.238H236.698V131.428Z" fill="#E0E0E0"/>
<path d="M511.43 322.154H232.8V605.023H511.43V322.154Z" fill="#E6E6E6"/>
<path d="M246.811 233.051H28.5439V490.206H246.811V233.051Z" fill="#F0F0F0"/>
<path d="M246.811 233.051H28.5439V261.065H246.811V233.051Z" fill="#E0E0E0"/>
<path d="M46.5688 246.771C46.529 247.787 46.2271 248.767 45.7005 249.59C45.1738 250.413 44.4456 251.042 43.6063 251.4C42.7669 251.758 41.8534 251.829 40.979 251.603C40.1046 251.378 39.3079 250.866 38.6877 250.132C38.0675 249.397 37.6511 248.472 37.4902 247.472C37.3294 246.472 37.4311 245.44 37.7829 244.504C38.1346 243.569 38.7208 242.771 39.4687 242.21C40.2166 241.649 41.0934 241.35 41.9901 241.349C43.2302 241.383 44.4078 241.973 45.2657 242.989C46.1236 244.005 46.5921 245.364 46.5688 246.771Z" fill="white"/>
<path d="M65.1589 246.771C65.122 247.791 64.8211 248.777 64.2939 249.606C63.7666 250.434 63.0362 251.068 62.1935 251.429C61.3508 251.79 60.4331 251.863 59.5545 251.637C58.6759 251.411 57.8753 250.897 57.2522 250.159C56.6292 249.422 56.2112 248.492 56.0503 247.487C55.8895 246.482 55.9928 245.445 56.3475 244.506C56.7022 243.567 57.2926 242.767 58.0452 242.206C58.7978 241.644 59.6794 241.346 60.5803 241.349C61.8203 241.383 62.998 241.973 63.8559 242.989C64.7138 244.005 65.1822 245.364 65.1589 246.771Z" fill="white"/>
<path d="M83.7482 246.771C83.7113 247.791 83.4105 248.777 82.8832 249.606C82.3559 250.434 81.6255 251.068 80.7828 251.429C79.9401 251.79 79.0224 251.863 78.1438 251.637C77.2652 251.411 76.4646 250.897 75.8416 250.159C75.2185 249.422 74.8005 248.492 74.6397 247.487C74.4788 246.482 74.5822 245.445 74.9369 244.506C75.2916 243.567 75.882 242.767 76.6346 242.206C77.3872 241.644 78.2687 241.346 79.1696 241.349C80.4097 241.383 81.5873 241.973 82.4452 242.989C83.3031 244.005 83.7716 245.364 83.7482 246.771Z" fill="white"/>
<path d="M587.832 56.2418H309.202V371.15H587.832V56.2418Z" fill="#F0F0F0"/>
<path d="M587.832 56.2418H309.202V93.1285H587.832V56.2418Z" fill="#E0E0E0"/>
<path d="M332.936 74.3154C332.885 75.6564 332.487 76.9509 331.793 78.038C331.099 79.1252 330.138 79.9572 329.031 80.4307C327.923 80.9042 326.717 80.9984 325.563 80.7016C324.409 80.4048 323.357 79.73 322.538 78.761C321.718 77.7921 321.168 76.5717 320.956 75.2513C320.743 73.9309 320.877 72.5687 321.341 71.3339C321.805 70.0991 322.578 69.046 323.566 68.3054C324.553 67.5649 325.71 67.1694 326.894 67.1681C328.53 67.2113 330.084 67.9875 331.216 69.327C332.348 70.6665 332.967 72.4602 332.936 74.3154Z" fill="white"/>
<path d="M355.641 69.4849C356.444 70.4741 356.973 71.7094 357.161 73.037C357.35 74.3646 357.19 75.7258 356.701 76.9508C356.212 78.1759 355.416 79.2108 354.412 79.9265C353.408 80.6422 352.241 81.0071 351.055 80.9757C349.87 80.9444 348.718 80.5181 347.745 79.7501C346.772 78.9821 346.019 77.9062 345.581 76.6566C345.143 75.407 345.039 74.0389 345.282 72.7227C345.525 71.4065 346.104 70.2005 346.947 69.2549C348.128 67.9806 349.706 67.2892 351.336 67.3324C352.966 67.3755 354.514 68.1495 355.641 69.4849Z" fill="white"/>
<path d="M381.881 74.3154C381.83 75.6564 381.433 76.9509 380.738 78.038C380.044 79.1252 379.084 79.9572 377.976 80.4307C376.869 80.9042 375.663 80.9984 374.508 80.7016C373.354 80.4048 372.302 79.73 371.483 78.761C370.664 77.7921 370.114 76.5717 369.901 75.2513C369.688 73.9309 369.822 72.5687 370.286 71.3339C370.75 70.0991 371.524 69.046 372.511 68.3054C373.498 67.5649 374.655 67.1694 375.839 67.1681C377.475 67.2113 379.029 67.9875 380.161 69.327C381.294 70.6665 381.912 72.4602 381.881 74.3154Z" fill="white"/>
</svg>
