<svg width="210" height="484" viewBox="0 0 210 484" fill="none" xmlns="http://www.w3.org/2000/svg">
<path d="M176.213 484L31.3891 483.243C23.0257 483.191 15.0224 479.377 9.13707 472.638C3.25174 465.9 -0.0344307 456.788 0.000272084 447.304L1.53709 35.6111C1.55418 30.9124 2.38772 26.2636 3.99008 21.9305C5.59243 17.5973 7.9322 13.6647 10.8756 10.3575C13.819 7.05034 17.3083 4.43337 21.1441 2.65624C24.9799 0.879107 29.0869 -0.0233447 33.2304 0.000458902L178.04 0.756732C186.403 0.804589 194.408 4.61465 200.296 11.3501C206.184 18.0856 209.474 27.1958 209.443 36.6798L207.906 448.356C207.889 453.056 207.056 457.707 205.454 462.042C203.852 466.377 201.512 470.311 198.569 473.621C195.626 476.931 192.137 479.551 188.301 481.332C184.465 483.113 180.358 484.019 176.213 484Z" fill="#455A64"/>
</svg>
