<svg width="39" height="40" viewBox="0 0 39 40" fill="none" xmlns="http://www.w3.org/2000/svg">
<path d="M19.2481 0C8.61509 0 0 8.95161 0 20C0 31.0484 8.61509 40 19.2481 40C29.8812 40 38.4962 31.0484 38.4962 20C38.4962 8.95161 29.8812 0 19.2481 0ZM19.2481 7.74194C23.0201 7.74194 26.0781 10.9194 26.0781 14.8387C26.0781 18.7581 23.0201 21.9355 19.2481 21.9355C15.4761 21.9355 12.4181 18.7581 12.4181 14.8387C12.4181 10.9194 15.4761 7.74194 19.2481 7.74194ZM19.2481 35.4839C14.6922 35.4839 10.6098 33.3387 7.87776 29.9839C9.33689 27.129 12.1931 25.1613 15.5227 25.1613C15.709 25.1613 15.8952 25.1935 16.0737 25.25C17.0827 25.5887 18.1383 25.8064 19.2481 25.8064C20.358 25.8064 21.4213 25.5887 22.4225 25.25C22.601 25.1935 22.7873 25.1613 22.9736 25.1613C26.3032 25.1613 29.1594 27.129 30.6185 29.9839C27.8865 33.3387 23.804 35.4839 19.2481 35.4839Z" fill="#2C3531"/>
</svg>
