<svg width="80" height="8" viewBox="0 0 80 8" fill="none" xmlns="http://www.w3.org/2000/svg">
<g opacity="0.2">
<path d="M5.9743 3.64011C5.93145 4.30243 5.71809 4.9359 5.36068 5.46198C5.00327 5.98807 4.51754 6.38359 3.96372 6.59952C3.4099 6.81545 2.81237 6.84226 2.24523 6.67665C1.67809 6.51104 1.1663 6.1603 0.773337 5.6679C0.380373 5.1755 0.123535 4.56309 0.0346538 3.90668C-0.0542277 3.25027 0.0287566 2.57872 0.273341 1.97531C0.517926 1.3719 0.913353 0.863199 1.41055 0.512268C1.90774 0.161337 2.48482 -0.0163761 3.07026 0.00118669C3.8792 0.0523014 4.63777 0.463037 5.18142 1.14425C5.72506 1.82546 6.00995 2.72225 5.9743 3.64011Z" fill="white"/>
<path d="M15.2237 3.68945C15.2523 4.15364 15.1963 4.6195 15.0593 5.05812C14.9223 5.49675 14.7071 5.89872 14.4273 6.23902C14.1474 6.57932 13.8088 6.85069 13.4324 7.03622C13.0561 7.22176 12.6501 7.31751 12.2398 7.31751C11.8294 7.31751 11.4235 7.22176 11.0472 7.03622C10.6708 6.85069 10.3322 6.57932 10.0523 6.23902C9.77245 5.89872 9.55732 5.49675 9.42031 5.05812C9.28329 4.6195 9.22734 4.15364 9.25591 3.68945C9.22734 3.22525 9.28329 2.75934 9.42031 2.32072C9.55732 1.88209 9.77245 1.48012 10.0523 1.13982C10.3322 0.799517 10.6708 0.528155 11.0472 0.342619C11.4235 0.157083 11.8294 0.0613256 12.2398 0.0613256C12.6501 0.0613256 13.0561 0.157083 13.4324 0.342619C13.8088 0.528155 14.1474 0.799517 14.4273 1.13982C14.7071 1.48012 14.9223 1.88209 15.0593 2.32072C15.1963 2.75934 15.2523 3.22525 15.2237 3.68945Z" fill="white"/>
<path d="M24.4872 3.7388C24.4444 4.40112 24.231 5.03459 23.8736 5.56067C23.5162 6.08676 23.0305 6.48228 22.4767 6.69821C21.9229 6.91414 21.3253 6.94095 20.7582 6.77534C20.191 6.60973 19.6793 6.25899 19.2863 5.76659C18.8933 5.27419 18.6365 4.66178 18.5476 4.00537C18.4587 3.34896 18.5417 2.67741 18.7863 2.074C19.0309 1.47059 19.4263 0.961889 19.9235 0.610958C20.4207 0.260027 20.9978 0.0823137 21.5832 0.0998765C22.3908 0.15516 23.1471 0.567104 23.69 1.24736C24.2329 1.92762 24.5191 2.82205 24.4872 3.7388Z" fill="white"/>
<path d="M33.7369 3.78821C33.694 4.45053 33.4807 5.084 33.1233 5.61008C32.7658 6.13616 32.2801 6.53169 31.7263 6.74761C31.1725 6.96354 30.5749 6.99036 30.0078 6.82475C29.4407 6.65913 28.9289 6.3084 28.5359 5.816C28.143 5.3236 27.8861 4.71123 27.7972 4.05483C27.7084 3.39842 27.7914 2.72682 28.0359 2.12341C28.2805 1.52 28.6759 1.0113 29.1731 0.660364C29.6703 0.309433 30.2474 0.13172 30.8329 0.149283C31.6404 0.204566 32.3968 0.61651 32.9397 1.29677C33.4825 1.97702 33.7688 2.87146 33.7369 3.78821Z" fill="white"/>
<path d="M42.9861 3.82116C42.946 4.48446 42.7349 5.11978 42.3791 5.64816C42.0232 6.17654 41.5383 6.57467 40.9845 6.79308C40.4307 7.01149 39.8326 7.04052 39.2644 6.8766C38.6962 6.71267 38.183 6.36301 37.7886 5.87106C37.3942 5.37911 37.136 4.76658 37.0461 4.10959C36.9562 3.4526 37.0386 2.78017 37.2829 2.17581C37.5273 1.57145 37.9228 1.06185 38.4205 0.710354C38.9182 0.358853 39.4959 0.180908 40.082 0.19872C40.887 0.253984 41.6411 0.663642 42.1836 1.34032C42.7261 2.01701 43.0141 2.9072 42.9861 3.82116Z" fill="white"/>
<path d="M52.2495 3.87061C52.2098 4.53048 52.0009 5.16279 51.6485 5.68977C51.296 6.21675 50.8154 6.61542 50.2657 6.83665C49.7161 7.05787 49.1214 7.09203 48.5548 6.93494C47.9882 6.77784 47.4745 6.4363 47.0769 5.95242C46.6793 5.46853 46.4151 4.8634 46.3168 4.21145C46.2186 3.5595 46.2906 2.8892 46.5239 2.28304C46.7573 1.67688 47.1418 1.16128 47.6302 0.799747C48.1186 0.438212 48.6896 0.246484 49.2728 0.248165C50.0907 0.2825 50.8632 0.683055 51.4211 1.36203C51.9791 2.04101 52.2769 2.94307 52.2495 3.87061Z" fill="white"/>
<path d="M61.4997 3.91989C61.5283 4.38409 61.4723 4.84999 61.3353 5.28862C61.1983 5.72724 60.9832 6.12922 60.7033 6.46952C60.4234 6.80982 60.0848 7.08118 59.7084 7.26671C59.3321 7.45225 58.9262 7.54796 58.5158 7.54796C58.1055 7.54796 57.6995 7.45225 57.3232 7.26671C56.9468 7.08118 56.6082 6.80982 56.3284 6.46952C56.0485 6.12922 55.8333 5.72724 55.6963 5.28862C55.5593 4.84999 55.5034 4.38409 55.5319 3.91989C55.5034 3.45569 55.5593 2.98978 55.6963 2.55116C55.8333 2.11254 56.0485 1.71056 56.3284 1.37026C56.6082 1.02996 56.9468 0.758648 57.3232 0.573112C57.6995 0.387576 58.1055 0.291819 58.5158 0.291819C58.9262 0.291819 59.3321 0.387576 59.7084 0.573112C60.0848 0.758648 60.4234 1.02996 60.7033 1.37026C60.9832 1.71056 61.1983 2.11254 61.3353 2.55116C61.4723 2.98978 61.5283 3.45569 61.4997 3.91989Z" fill="white"/>
<path d="M70.7487 3.96936C70.7091 4.62923 70.5002 5.26159 70.1477 5.78857C69.7952 6.31555 69.3146 6.71418 68.7649 6.9354C68.2153 7.15663 67.6206 7.19079 67.054 7.03369C66.4874 6.87659 65.9737 6.53506 65.5761 6.05117C65.1785 5.56729 64.9143 4.96215 64.8161 4.3102C64.7178 3.65825 64.7898 2.98796 65.0231 2.3818C65.2565 1.77564 65.641 1.26004 66.1294 0.898502C66.6178 0.536967 67.1888 0.345288 67.7721 0.34697C68.5899 0.381304 69.3624 0.781809 69.9204 1.46079C70.4783 2.13976 70.7762 3.04182 70.7487 3.96936Z" fill="white"/>
<path d="M79.9983 4.01873C79.9582 4.68203 79.7472 5.31735 79.3913 5.84573C79.0354 6.37411 78.5505 6.77224 77.9967 6.99065C77.443 7.20905 76.8448 7.23814 76.2766 7.07421C75.7084 6.91029 75.1952 6.56058 74.8008 6.06863C74.4064 5.57668 74.1482 4.96414 74.0583 4.30716C73.9684 3.65017 74.0508 2.97774 74.2951 2.37338C74.5395 1.76902 74.9351 1.25942 75.4327 0.90792C75.9304 0.55642 76.5082 0.378525 77.0942 0.396337C77.8992 0.451601 78.6533 0.861209 79.1958 1.53789C79.7383 2.21457 80.0263 3.10477 79.9983 4.01873Z" fill="white"/>
</g>
</svg>
