<svg width="20" height="24" viewBox="0 0 20 24" fill="none" xmlns="http://www.w3.org/2000/svg">
<path opacity="0.1" d="M11.7127 12.333C12.7308 11.8246 13.5946 10.9879 14.1965 9.927C14.7985 8.86613 15.1121 7.62794 15.0982 6.36653C15.1362 5.54652 15.0265 4.72635 14.7759 3.95596C14.5253 3.18557 14.139 2.48109 13.6406 1.88545C13.1421 1.2898 12.542 0.815465 11.8767 0.491317C11.2114 0.167169 10.4948 0 9.77072 0C9.0466 0 8.33006 0.167169 7.66476 0.491317C6.99945 0.815465 6.3993 1.2898 5.90086 1.88545C5.40243 2.48109 5.01616 3.18557 4.76556 3.95596C4.51496 4.72635 4.40532 5.54652 4.44326 6.36653C4.42093 7.64057 4.73196 8.89356 5.33713 9.9673C5.94229 11.041 6.81443 11.8874 7.84344 12.3995C-0.363976 13.7955 0.0024624 23.9003 0.0024624 23.9003L19.4071 24C19.4071 24 19.8615 13.7124 11.7127 12.333Z" fill="black"/>
</svg>
