<svg width="208" height="458" viewBox="0 0 208 458" fill="none" xmlns="http://www.w3.org/2000/svg">
<path d="M70.6413 450.318V436.252L48.4 436.071L48.2114 457.343L49.5897 457.459C55.7267 457.903 80.8116 458.561 84.9319 457.113C89.5166 455.501 70.6413 450.318 70.6413 450.318Z" fill="#9FCCC0"/>
<path d="M85.4536 455.797C85.4536 456.027 77.1258 456.225 66.8684 456.225C56.6111 456.225 48.2833 456.027 48.2833 455.797C48.2833 455.567 56.6111 455.369 66.8684 455.369C77.1258 455.369 85.4536 455.567 85.4536 455.797Z" fill="#263238"/>
<path d="M71.033 453.198C70.8444 453.082 71.033 452.342 71.4828 451.552C71.9325 450.763 72.5419 450.434 72.687 450.598C72.8321 450.763 72.5274 451.388 72.0921 452.062C71.6569 452.737 71.2216 453.313 71.033 453.198Z" fill="#263238"/>
<path d="M72.4543 454.119C72.2512 454.119 72.3528 453.197 72.788 452.326C73.2233 451.454 73.8036 450.927 73.9632 451.059C74.1228 451.19 73.8616 451.931 73.4554 452.704C73.0491 453.477 72.6429 454.201 72.4543 454.119Z" fill="#263238"/>
<path d="M54.9865 455.731C54.8995 455.731 54.5658 455.435 54.087 454.81C53.5026 454.006 52.8515 453.268 52.1429 452.605C51.446 451.974 50.6158 451.56 49.7345 451.404C49.0526 451.305 48.6174 451.404 48.5738 451.305C48.5303 451.207 48.9511 450.861 49.749 450.795C50.8021 450.77 51.8294 451.166 52.6507 451.914C53.4202 452.625 54.0691 453.489 54.5658 454.464C54.8995 455.188 55.0736 455.665 54.9865 455.731Z" fill="#263238"/>
<path d="M71.1053 450.549C71.2069 450.746 70.8297 451.24 70.1913 451.503C69.5529 451.766 68.9871 451.667 68.9581 451.503C68.9291 451.338 69.3789 450.993 69.9302 450.763C70.4815 450.532 70.9893 450.351 71.1053 450.549Z" fill="#263238"/>
<path d="M70.7568 449.183C70.7568 449.43 70.1764 449.627 69.422 449.644C68.6676 449.66 68.0727 449.463 68.0873 449.233C68.1018 449.002 68.6966 448.788 69.422 448.772C70.1474 448.755 70.7278 448.953 70.7568 449.183Z" fill="#263238"/>
<path d="M125.41 450.318V436.252L103.168 436.071L102.98 457.13L104.358 457.245C110.495 457.689 135.594 458.561 139.7 457.113C144.285 455.501 125.41 450.318 125.41 450.318Z" fill="#9FCCC0"/>
<path d="M140.223 455.83C140.223 456.06 131.91 456.258 121.638 456.258C111.366 456.258 103.067 456.06 103.067 455.83C103.067 455.6 111.381 455.402 121.638 455.402C131.895 455.402 140.223 455.6 140.223 455.83Z" fill="#263238"/>
<path d="M125.801 453.198C125.627 453.082 125.801 452.342 126.251 451.552C126.701 450.763 127.31 450.434 127.455 450.598C127.6 450.763 127.295 451.388 126.86 452.062C126.425 452.737 125.99 453.313 125.801 453.198Z" fill="#263238"/>
<path d="M127.223 454.119C127.034 454.119 127.121 453.197 127.571 452.326C128.021 451.454 128.587 450.927 128.746 451.059C128.906 451.19 128.63 451.931 128.224 452.704C127.818 453.477 127.426 454.201 127.223 454.119Z" fill="#263238"/>
<path d="M109.755 455.731C109.668 455.731 109.349 455.435 108.856 454.81C108.271 454.006 107.62 453.268 106.912 452.605C106.215 451.974 105.385 451.56 104.503 451.404C103.836 451.305 103.386 451.404 103.343 451.305C103.299 451.207 103.72 450.861 104.518 450.795C105.571 450.77 106.598 451.166 107.419 451.914C108.193 452.621 108.843 453.486 109.335 454.464C109.668 455.188 109.842 455.665 109.755 455.731Z" fill="#263238"/>
<path d="M125.874 450.549C125.976 450.746 125.598 451.24 124.96 451.503C124.322 451.766 123.756 451.667 123.727 451.503C123.698 451.338 124.148 450.993 124.699 450.763C125.25 450.532 125.758 450.351 125.874 450.549Z" fill="#263238"/>
<path d="M125.555 449.183C125.555 449.43 124.975 449.627 124.22 449.644C123.466 449.66 122.886 449.463 122.9 449.233C122.915 449.002 123.495 448.788 124.22 448.772C124.946 448.755 125.555 448.953 125.555 449.183Z" fill="#263238"/>
<path d="M207.353 32.6003C206.772 31.9257 205.336 32.2548 205.336 32.2548C205.48 31.3075 205.48 30.3394 205.336 29.3921C205.075 28.4708 203.247 28.6518 203.247 28.6518C203.163 27.876 203.163 27.0914 203.247 26.3156C203.261 26.1436 203.229 25.9707 203.154 25.8206C203.078 25.6704 202.964 25.5503 202.826 25.4765C201.961 25.0766 201.032 24.8861 200.099 24.9172C198.981 24.0123 203.508 16.8227 205.191 14.5194C206.874 12.2161 206.569 10.4229 205.075 10.4229C204.045 10.4229 198.764 17.3328 197.139 19.6525C195.514 21.9722 191.205 28.4215 191.06 23.272C190.915 18.1225 189.087 14.2398 187.941 13.5817C186.794 12.9236 185.576 14.4701 186.2 15.9014C186.748 17.5275 187.09 19.2336 187.215 20.9686C187.373 22.3507 187.319 23.7533 187.056 25.1146C186.575 27.6474 185.92 30.1338 185.097 32.5509H184.981C184.981 32.5509 153.324 66.9851 151.031 69.4365C148.986 71.641 107.84 66.8206 99.585 65.8335C96.7798 65.368 93.9471 65.148 91.1122 65.1754C87.5286 65.3564 86.8902 65.9322 83.3212 65.9815C74.3078 66.095 65.3154 66.9915 56.4228 68.6632C52.3962 69.4395 48.635 71.4549 45.5495 74.4896C42.464 77.5243 40.1728 81.4617 38.9258 85.8721C30.6125 115.321 11.7807 185.029 8.45832 224.185C5.94774 229.347 3.68125 234.658 1.66844 240.094C-0.667395 247.3 -0.101571 247.547 0.681878 247.711C2.80009 248.155 5.20847 235.224 6.10798 238.35C7.0075 241.476 1.53787 253.765 3.75764 254.127C6.6593 254.588 8.96612 240.966 9.24178 239.88C9.51744 238.794 10.9538 239.14 10.6926 240.16C10.2719 241.607 6.19504 256.957 9.03867 257.451C10.6056 257.714 10.7797 254.473 10.7797 254.473C10.7797 254.473 13.6813 239.781 15.0016 240.077C16.3218 240.373 14.9145 249.044 14.2471 251.939C13.5798 254.835 14.5083 256.299 15.8721 255.592C16.8006 255.098 19.0204 246.296 19.6297 243.434C20.2391 240.571 21.7624 232.641 23.8081 237.231C25.8538 241.821 28.9586 244.487 30.2353 244.552C30.523 244.515 30.7942 244.38 31.0139 244.166C31.2337 243.953 31.392 243.669 31.4685 243.352C31.5449 243.036 31.5361 242.7 31.443 242.389C31.3499 242.078 31.1769 241.806 30.9462 241.607C29.8481 240.391 28.9056 239.007 28.1461 237.494C27.4693 236.316 26.9784 235.014 26.6953 233.645C26.1106 230.916 25.7704 228.126 25.6797 225.32L25.4476 223.675C28.6974 205.429 38.0553 151.878 51.5625 117.674L57.1047 130.605L59.5131 140.18L44.7436 181.524L107.739 180.587L98.3373 139.555L109.755 96.7798C122.102 97.0924 153.803 97.6189 159.084 94.9043C165.728 91.6139 200.099 42.3893 200.099 42.3893C202.339 40.4151 204.484 38.3063 206.526 36.0717C206.526 36.0717 208.615 34.081 207.353 32.6003Z" fill="#FFBE9D"/>
<path d="M41.9726 150.973C43.8006 143.899 53.1875 108.921 53.1875 108.921C53.1875 108.921 57.8011 137.433 56.5824 140.871C55.4614 143.815 54.137 146.654 52.6217 149.361C41.9726 167.738 43.3654 176.934 43.3654 176.934L107.71 174.713C107.855 164.513 102.53 140.789 101.428 137.005C100.325 133.221 103.996 120.833 103.996 120.833C103.996 120.833 111.25 112.459 110.989 108.148C110.851 104.276 110.429 100.424 109.726 96.6317L148.899 98.277L147.666 68.1697L91.4024 61.7862C89.4438 68.0545 71.7291 64.9779 71.7291 64.9779C52.6072 65.7018 51.4175 69.6833 43.4669 76.6918C35.5164 83.7004 22.3573 143.849 22.3573 143.849L41.9726 150.973Z" fill="#9FCCC0"/>
<path d="M80.0137 143.849C78.8986 144.075 77.7629 144.141 76.6332 144.047C74.5295 144.047 71.6424 143.882 68.465 143.52C65.2877 143.158 62.4151 142.648 60.3694 142.188C59.2414 142.023 58.1354 141.702 57.076 141.233C58.2103 141.234 59.3421 141.355 60.4565 141.595C62.5166 141.891 65.3748 142.303 68.5376 142.665C71.7004 143.027 74.573 143.273 76.6477 143.438C77.7786 143.454 78.9057 143.592 80.0137 143.849Z" fill="#263238"/>
<path d="M84.4237 137.647C83.3083 138.266 82.1287 138.725 80.9127 139.012C75.1244 140.737 69.1526 141.54 63.1691 141.398C61.9309 141.444 60.6926 141.311 59.484 141.003C60.7059 140.828 61.9377 140.757 63.1691 140.789C65.4469 140.707 68.5807 140.526 72.0336 140.065C75.4866 139.605 78.5624 138.946 80.7386 138.42C81.9474 138.054 83.1795 137.795 84.4237 137.647Z" fill="#263238"/>
<path d="M106.07 109.974C106.041 111.229 105.89 112.476 105.621 113.693C105.243 115.979 104.663 119.105 103.923 122.527C103.183 125.949 102.472 129.108 101.834 131.247C101.577 132.471 101.198 133.658 100.702 134.784C100.783 133.534 100.988 132.298 101.312 131.099C101.863 128.532 102.487 125.571 103.183 122.33C103.88 119.089 104.547 116.127 105.098 113.561C105.295 112.326 105.621 111.122 106.07 109.974Z" fill="#263238"/>
<path d="M42.6549 146.778C39.2985 146.19 35.986 145.315 32.7458 144.162C29.4348 143.284 26.1857 142.129 23.0252 140.707C26.38 141.304 29.6919 142.178 32.9344 143.323C36.2461 144.197 39.4954 145.352 42.6549 146.778Z" fill="#263238"/>
<path d="M110.423 96.2698C109.875 96.3766 109.316 96.3766 108.769 96.2698C107.253 96.0935 105.765 95.6897 104.344 95.0688C101.97 94.0575 99.8097 92.4943 98.0007 90.4798C96.1917 88.4653 94.7744 86.044 93.8397 83.3714C92.8065 80.4314 92.3654 77.2668 92.5484 74.1088C92.6131 71.504 93.3001 68.968 94.536 66.7712C95.4054 65.2913 96.7039 64.2029 98.2066 63.6947C98.6082 63.569 99.0233 63.5081 99.4399 63.5137C99.73 63.5137 99.8751 63.5137 99.8751 63.5137C99.8751 63.5137 99.2658 63.5137 98.2937 63.9579C96.9151 64.5354 95.7459 65.6181 94.9713 67.0344C92.9982 70.5552 92.4469 76.988 94.5506 82.993C95.5297 85.8244 97.0625 88.3669 99.0336 90.4293C100.649 92.1168 102.509 93.4749 104.532 94.4436C106.431 95.2945 108.406 95.9069 110.423 96.2698Z" fill="#263238"/>
<path d="M144.242 97.6846C143.879 92.6395 143.762 87.5755 143.893 82.5158C143.78 77.4604 143.915 72.4017 144.3 67.3635C144.663 72.4031 144.779 77.4616 144.648 82.5158C144.77 87.5768 144.634 92.6414 144.242 97.6846Z" fill="#263238"/>
<path d="M91.0253 63.6289C91.1849 59.9601 91.5186 55.8142 91.5186 55.8142C91.5186 55.8142 99.5272 54.8106 100.006 45.4329C100.485 36.0552 100.006 14.4207 100.006 14.4207L85.4976 5.99728L69.3934 20.3599L71.8743 67.2483L86.6438 68.3177C87.7727 68.3531 88.868 67.8794 89.6893 67.0005C90.5107 66.1215 90.9911 64.909 91.0253 63.6289Z" fill="#FFBE9D"/>
<path d="M92.4616 38.013C92.4616 38.013 92.4616 38.194 92.3311 38.4079C92.2231 38.563 92.0835 38.686 91.9242 38.7663C91.765 38.8465 91.5909 38.8816 91.417 38.8685C90.4885 38.8685 89.589 37.651 89.2698 36.2362C89.1181 35.5503 89.1181 34.8326 89.2698 34.1468C89.2996 33.8474 89.3948 33.5612 89.5468 33.3141C89.6988 33.0671 89.9028 32.8669 90.1403 32.7319C90.3354 32.6405 90.5545 32.6405 90.7496 32.7319C90.8943 32.8133 91.0115 32.9462 91.0833 33.1103C91.1849 33.39 91.0833 33.571 91.0833 33.5545C91.0833 33.538 91.0833 33.39 90.9383 33.2255C90.8624 33.1076 90.7509 33.0257 90.6251 32.9953C90.4992 32.965 90.3679 32.9883 90.2564 33.0609C90.0784 33.183 89.9305 33.354 89.8265 33.5583C89.7225 33.7625 89.6658 33.9932 89.6615 34.229C89.5394 34.841 89.5394 35.4761 89.6615 36.0881C89.9517 37.3714 90.7351 38.4079 91.4315 38.5066C91.5678 38.5275 91.7064 38.5164 91.8387 38.474C91.971 38.4315 92.0941 38.3586 92.2005 38.2598C92.3746 38.1282 92.4326 37.9965 92.4616 38.013Z" fill="#EB996E"/>
<path d="M104.982 9.35348C103.865 5.04304 99.817 2.90427 96.1319 1.71972C90.5172 -0.0900088 84.4527 -0.879712 78.9686 1.40713C73.4845 3.69396 66.8977 7.70827 66.8977 14.5688C63.6623 14.2726 61.8053 17.4808 60.5285 21.4622C59.7123 23.8878 59.2232 26.4392 59.0777 29.0302C58.6715 38.013 56.4517 50.4179 51.3158 56.9987C48.4141 60.6675 44.3953 63.2011 42.7414 67.7748C41.2905 71.7398 42.0449 76.445 40.6957 80.4593C39.4915 83.9965 36.8365 86.5137 34.8924 89.5903C32.9117 93.0804 31.7461 97.0842 31.505 101.226C31.2639 105.367 31.9552 109.51 33.5141 113.265C35.0841 116.924 37.2946 120.182 40.0109 122.84C42.7272 125.499 45.8923 127.503 49.3136 128.73C56.0905 131.068 63.3172 131.148 70.133 128.96C75.2483 127.573 80.0201 124.89 84.09 121.112C88.2544 117.256 91.1146 111.885 92.1857 105.911C93.2158 99.1983 91.5618 92.3707 90.3286 85.6911C86.4694 64.5831 87.572 63.4808 92.4468 43.8864C92.5629 43.5409 92.6209 43.179 92.708 42.8335C92.795 42.488 92.8386 42.3234 92.8966 42.0602C93.0351 41.2856 93.1079 40.4978 93.1142 39.7076C92.4022 40.0078 91.6294 40.0713 90.8866 39.8906C90.1439 39.7099 89.462 39.2926 88.9213 38.6875C88.3793 38.0424 88.0014 37.243 87.8277 36.374C87.654 35.5051 87.691 34.599 87.9348 33.7519C88.2771 32.8255 88.7871 31.9909 89.4319 31.3022C90.0767 30.6135 90.8419 30.0861 91.6779 29.7541C93.2883 28.9973 95.0148 28.6024 96.5962 27.7634C99.9476 25.9536 102.269 22.2025 103.85 18.2705C105.151 15.5453 105.552 12.3839 104.982 9.35348Z" fill="#263238"/>
<path d="M93.0417 38.4572C93.3483 38.9708 93.6014 39.5228 93.7962 40.1024C94.2314 41.1389 94.8117 42.6031 95.4501 44.2977L95.5662 44.6103H95.2615L93.8107 44.7583C92.8096 44.7583 91.9681 44.9722 90.9815 44.9557C90.8956 44.9338 90.816 44.8877 90.7501 44.8215C90.6841 44.7554 90.634 44.6714 90.6043 44.5774C90.5611 44.4277 90.5611 44.2663 90.6043 44.1167C90.6379 43.895 90.6815 43.6753 90.7349 43.4586L90.996 42.2905C91.1273 41.5113 91.3316 40.7502 91.6054 40.0201C91.5784 40.8144 91.4762 41.6032 91.3007 42.3728L91.0976 43.5409C91.0251 43.9357 90.8945 44.5444 91.0976 44.4951C91.823 44.4951 92.8531 44.3141 93.8107 44.2483L95.2615 44.1002L95.0729 44.4622C94.449 42.817 93.9267 41.2705 93.6221 40.2011C93.3548 39.6549 93.1593 39.0674 93.0417 38.4572Z" fill="#9FCCC0"/>
<path d="M43.3657 176.934L107.71 174.713L135.711 298.663L130.561 440.842H96.5386L100.703 301.69L75.8208 215.399L79.651 446.353L45.2663 446.929L41.6537 229.844C41.4941 223.806 39.7531 210.2 40.406 204.212L43.3657 176.934Z" fill="#263238"/>
<path d="M84.3807 217.16C83.3275 217.235 82.2701 217.163 81.2324 216.946C79.2883 216.682 76.6333 216.222 73.7171 215.564C70.8009 214.906 68.1894 214.149 66.3033 213.54C65.2951 213.289 64.3198 212.891 63.4017 212.356C63.4017 212.109 68.1314 213.392 73.9347 214.725C79.738 216.057 84.4097 216.913 84.3807 217.16Z" fill="#455A64"/>
<path d="M130.213 433.044C130.213 433.274 122.509 433.471 113.006 433.471C103.503 433.471 95.7843 433.274 95.7843 433.044C95.7843 432.813 103.488 432.616 113.006 432.616C122.523 432.616 130.213 432.797 130.213 433.044Z" fill="#455A64"/>
<path d="M79.3462 440.348C79.3462 440.595 71.8599 440.776 62.6326 440.776C53.4053 440.776 45.9335 440.595 45.9335 440.348C45.9335 440.102 53.4198 439.921 62.6326 439.921C71.8454 439.921 79.3462 440.118 79.3462 440.348Z" fill="#455A64"/>
<path d="M74.9066 439.756C74.7034 439.756 73.8039 389.298 72.8899 327.06C71.9759 264.821 71.4391 214.33 71.6277 214.33C71.8163 214.33 72.7448 264.772 73.6443 327.043C74.5439 389.314 75.1242 439.756 74.9066 439.756Z" fill="#455A64"/>
<path d="M125.642 433.044C125.626 432.819 125.626 432.594 125.642 432.369V430.395C125.642 428.618 125.758 426.068 125.845 422.827C126.048 416.246 126.338 406.687 126.701 394.974C127.484 371.414 128.587 338.938 129.791 303.089C129.791 302.743 129.791 302.414 129.791 302.118V302.233C122.174 267.684 115.283 236.326 110.277 213.639L104.474 186.806C103.807 183.663 103.299 181.212 102.936 179.501C102.762 178.695 102.646 178.069 102.544 177.592C102.488 177.378 102.454 177.157 102.443 176.934C102.518 177.142 102.577 177.356 102.617 177.576C102.733 178.037 102.878 178.662 103.081 179.451C103.473 181.097 104.039 183.597 104.764 186.723C106.215 193.074 108.261 202.221 110.814 213.491C115.863 236.162 122.827 267.437 130.545 302.036V302.151C130.545 302.447 130.545 302.793 130.545 303.122C129.254 338.971 128.079 371.431 127.223 394.99C126.773 406.72 126.396 416.213 126.135 422.827C125.99 426.117 125.874 428.618 125.801 430.395C125.801 431.234 125.714 431.892 125.7 432.369C125.702 432.596 125.682 432.822 125.642 433.044Z" fill="#455A64"/>
<path d="M114.543 299.223C112.1 300.134 109.582 300.767 107.028 301.115C103.894 301.723 101.225 302.151 100.02 302.217V301.888C100.412 302.019 100.615 302.102 100.615 302.167C100.615 302.233 100.369 302.167 99.9624 302.167H99.0919L99.9624 301.871C101.094 301.493 103.764 300.868 106.897 300.226C109.411 299.608 111.972 299.272 114.543 299.223Z" fill="#455A64"/>
<path d="M113.948 303.944C111.685 304.062 109.418 303.946 107.173 303.599C104.907 303.546 102.649 303.265 100.427 302.76C104.961 302.34 109.525 302.74 113.948 303.944Z" fill="#455A64"/>
<path opacity="0.2" d="M43.0895 179.55C43.8515 180.66 44.8114 181.575 45.9063 182.235C47.0013 182.896 48.2068 183.287 49.4441 183.384C52.0356 183.732 54.6569 183.676 57.2351 183.219C73.8471 181.13 91.4457 179.205 107.709 174.713C86.6579 176.046 64.4167 175.602 43.3652 176.934L43.1475 178.974" fill="black"/>
<g opacity="0.2">
<path d="M64.7799 213.195L76.6477 265.414L75.8208 215.399L64.7799 213.195Z" fill="black"/>
</g>
</svg>
