<svg width="75" height="97" viewBox="0 0 75 97" fill="none" xmlns="http://www.w3.org/2000/svg">
<path d="M37.4138 0.000113241H36.7303L34.7523 0.165045C33.6819 0.237971 32.6175 0.397819 31.5673 0.643334C30.887 0.751649 30.2122 0.900264 29.5457 1.08861L27.2914 1.79778C23.4545 3.13263 19.8345 5.16567 16.5727 7.81743C12.2632 11.3645 8.66477 15.906 6.01398 21.1431C4.45596 24.1621 3.21609 27.3781 2.31988 30.7251C1.37816 34.3628 0.835955 38.1185 0.705536 41.9068C0.61886 43.8969 0.648007 45.8913 0.792795 47.877C0.792795 48.883 1.04004 49.8891 1.15639 50.9116C1.25425 51.9423 1.42446 52.9626 1.66541 53.9626C2.97322 60.5805 5.62679 66.7603 9.41445 72.009C13.2021 77.2576 18.019 81.4298 23.481 84.1929C27.4341 86.1271 31.6712 87.2067 35.974 87.3759C40.4182 87.6531 44.8668 86.93 49.0633 85.2484L50.3432 84.7041H50.5177L50.6632 84.8031L69.0028 95.3581L68.4647 95.8859C66.5013 88.9921 64.6106 82.3127 62.7781 75.8973V75.6499L62.938 75.4685C67.387 70.3871 70.6896 64.1641 72.566 57.3271C74.2654 51.0765 74.7614 44.4849 74.0203 37.9982C73.3612 32.2333 71.7266 26.667 69.2064 21.6049C67.034 17.2565 64.2315 13.3537 60.9165 10.0604C58.1815 7.45364 55.1544 5.2687 51.9139 3.56244C49.462 2.36326 46.9084 1.45145 44.293 0.841232L41.3843 0.296986L39.2754 0.115571L37.9956 0.0166216H37.5593C37.7043 -0.00162404 37.8506 -0.00162404 37.9956 0.0166216H39.29L41.3988 0.115571L44.3076 0.593834C46.9556 1.15939 49.544 2.0383 52.0303 3.21611C55.3264 4.90209 58.4081 7.08201 61.1928 9.69754C64.5688 12.9763 67.4307 16.8797 69.6572 21.2421C72.249 26.3586 73.9337 32.0003 74.6166 37.8498C75.4192 44.4367 74.9578 51.1424 73.2641 57.5085C71.3755 64.4877 68.0217 70.8431 63.4907 76.0292L63.578 75.6004C65.4105 82.0159 67.3157 88.6952 69.2936 95.5725L69.57 96.5785L68.741 96.1002L50.4014 85.5617H50.7213L49.4124 86.106C45.135 87.8127 40.6041 88.5524 36.0758 88.2829C31.6802 88.0932 27.3545 86.9745 23.321 84.9845C15.6269 81.2479 9.22555 74.7535 5.09773 66.4967C3.1982 62.6834 1.81097 58.57 0.981859 54.2925C0.754814 53.2666 0.584805 52.2255 0.472832 51.1755C0.356482 50.1365 0.167417 49.1139 0.123786 48.0914C-0.269828 42.2232 0.277118 36.3227 1.73814 30.6756C2.65666 27.2826 3.93109 24.0268 5.53405 20.9782C8.24807 15.6935 11.9215 11.1232 16.3109 7.57006C19.6264 4.91152 23.3073 2.89413 27.2042 1.59986L29.4875 0.940181C30.1596 0.76341 30.8392 0.625795 31.5236 0.527876C32.5848 0.305061 33.6592 0.172743 34.7378 0.132054L36.7303 0.049613C36.9568 0.015011 37.1853 -0.00154499 37.4138 0.000113241Z" fill="#9FCCC0"/>
<path d="M45.704 38.4599H43.0135L37.196 29.1913V23.1057C37.196 23.1057 33.0365 22.8088 33.531 30.7745C34.0255 38.7403 33.531 36.7118 33.531 36.7118C33.531 36.7118 24.7029 36.7118 23.9758 37.6188C23.2486 38.5259 23.2049 48.1903 23.1031 53.5833C23.0474 54.8833 23.3764 56.1672 24.0378 57.231C24.6992 58.2947 25.6551 59.0773 26.7536 59.4545C27.0615 59.5512 27.3794 59.6012 27.6989 59.6029C29.9096 59.6029 41.1519 57.5744 41.1519 57.5744H45.7913L45.704 38.4599Z" fill="#9FCCC0"/>
<path d="M53.3973 36.8272L51.7393 57.6734H47.1435V37.256L53.3973 36.8272Z" fill="#9FCCC0"/>
</svg>
