<svg width="6" height="7" viewBox="0 0 6 7" fill="none" xmlns="http://www.w3.org/2000/svg">
<path d="M5.99723 3.65409C5.95422 4.31895 5.74005 4.95485 5.38127 5.48296C5.02248 6.01106 4.53488 6.4081 3.97894 6.62486C3.423 6.84161 2.82316 6.86853 2.25385 6.70229C1.68454 6.53604 1.17078 6.18396 0.776306 5.68967C0.381833 5.19537 0.12401 4.58061 0.0347868 3.92168C-0.0544359 3.26275 0.028867 2.58863 0.274391 1.9829C0.519914 1.37717 0.916859 0.866513 1.41596 0.514235C1.91506 0.161956 2.49436 -0.016439 3.08204 0.00119125C3.8941 0.0525022 4.65558 0.464815 5.20131 1.14864C5.74705 1.83247 6.03302 2.7327 5.99723 3.65409Z" fill="#9FCCC0"/>
</svg>
